M48
; DRILL file KiCad 10.0.6 date 2026-09-20T18:34:14
; FORMAT={-:-/ absolute / metric / decimal}
; #@! TF.CreationDate,2026-09-20T18:34:14-04:00
; #@! TF.GenerationSoftware,Kicad,Pcbnew,10.0.6
; #@! TF.FileFunction,Plated,1,2,PTH
FMAT,2
METRIC
; #@! TA.AperFunction,Plated,PTH,ViaDrill
T1C0.300
; #@! TA.AperFunction,Plated,PTH,ComponentDrill
T2C0.600
; #@! TA.AperFunction,Plated,PTH,ComponentDrill
T3C0.800
; #@! TA.AperFunction,Plated,PTH,ComponentDrill
T4C1.000
; #@! TA.AperFunction,Plated,PTH,ComponentDrill
T5C1.500
; #@! TA.AperFunction,Plated,PTH,ComponentDrill
T6C3.000
; #@! TA.AperFunction,Plated,PTH,ComponentDrill
T7C3.048
%
G90
G05
T1
X-176.25Y-334.75
X-175.45Y-341.75
X-172.0Y-344.0
X-170.0Y-368.0
X-169.95Y-363.06
X-169.285Y-361.75
X-168.55Y-369.5
X-168.5Y-346.4
X-168.5Y-349.5
X-168.5Y-351.5
X-168.5Y-355.0
X-166.55Y-378.25
X-166.25Y-432.25
X-165.75Y-388.25
X-164.75Y-397.0
X-164.522Y-382.0
X-164.25Y-388.25
X-164.152Y-441.652
X-162.75Y-386.0
X-162.5Y-407.75
X-162.141Y-401.0
X-160.5Y-407.75
X-159.25Y-405.05
X-159.25Y-425.75
X-158.75Y-410.75
X-158.0Y-424.1
X-156.5Y-423.25
X-150.0Y-366.95
X-149.75Y-356.25
X-149.625Y-365.375
X-146.5Y-369.5
X-146.25Y-347.75
X-145.77Y-346.421
X-145.75Y-427.75
X-144.25Y-369.5
X-142.75Y-431.75
X-141.75Y-443.15
X-141.0Y-375.0
X-141.0Y-388.25
X-140.75Y-386.0
X-140.71Y-384.5
X-139.0Y-388.25
X-136.25Y-405.05
X-136.0Y-394.75
X-135.947Y-403.5
X-133.75Y-407.75
X-131.75Y-427.0
X-131.185Y-355.25
X-131.0Y-407.75
X-130.75Y-366.95
X-130.35Y-365.2
X-128.25Y-411.75
X-128.25Y-427.0
X-127.75Y-424.1
X-127.5Y-347.25
X-124.5Y-372.8
X-124.5Y-424.1
X-121.75Y-386.0
X-121.66Y-384.59
X-121.45Y-388.25
X-120.5Y-369.5
X-120.0Y-388.25
X-118.5Y-443.15
X-118.25Y-432.0
X-117.0Y-394.0
X-116.5Y-405.05
X-116.375Y-403.625
X-113.75Y-407.75
X-113.0Y-426.25
X-112.135Y-365.25
X-111.79Y-366.95
X-111.5Y-354.25
X-111.0Y-407.75
X-110.0Y-426.5
X-109.25Y-369.5
X-108.5Y-347.9
X-108.5Y-424.0
X-107.5Y-413.25
X-107.25Y-369.5
X-106.0Y-424.1
X-103.625Y-374.125
X-103.0Y-386.0
X-102.61Y-384.64
X-102.2Y-388.25
X-100.75Y-388.25
X-99.5Y-392.5
X-98.5Y-405.05
X-97.625Y-403.875
X-95.0Y-407.75
X-93.0Y-354.75
X-92.75Y-366.95
X-92.5Y-365.5
X-92.5Y-407.75
X-90.75Y-369.5
X-89.28Y-369.48
X-89.0Y-347.25
X-89.0Y-412.5
X-86.75Y-424.1
X-84.25Y-373.75
X-83.56Y-384.2
X-82.75Y-386.0
X-82.7Y-388.25
X-81.25Y-388.25
X-79.25Y-393.25
X-78.0Y-403.5
X-77.44Y-405.05
X-76.5Y-407.75
X-75.0Y-407.75
X-73.5Y-365.5
X-73.25Y-366.95
X-72.25Y-353.8
X-71.25Y-411.25
X-70.5Y-369.5
X-68.5Y-369.5
X-67.75Y-347.5
X-67.5Y-424.1
X-65.75Y-373.25
X-65.0Y-386.0
X-63.875Y-384.125
X-61.95Y-388.5
X-60.5Y-388.5
X-59.75Y-391.8
X-59.5Y-403.75
X-59.5Y-405.05
X-57.75Y-407.75
X-55.75Y-407.75
X-54.445Y-366.12
X-54.375Y-365.2
X-54.0Y-355.25
X-53.5Y-369.5
X-51.5Y-369.5
X-51.25Y-412.5
X-50.25Y-426.5
X-48.25Y-424.1
X-48.25Y-433.25
X-47.0Y-424.1
X-46.5Y-347.75
X-46.5Y-443.15
X-46.0Y-374.0
X-45.25Y-384.75
X-45.0Y-386.0
X-44.45Y-388.5
X-44.0Y-426.5
X-43.0Y-388.5
X-40.75Y-393.25
X-40.75Y-405.05
X-40.0Y-403.5
X-38.75Y-407.75
X-37.3Y-407.75
X-35.75Y-366.95
X-35.725Y-365.475
X-35.0Y-354.0
X-34.95Y-369.5
X-33.55Y-369.5
X-31.5Y-412.5
X-29.25Y-424.1
X-27.5Y-374.25
X-27.25Y-347.5
X-26.0Y-384.25
X-25.75Y-386.0
X-25.2Y-388.5
X-23.8Y-388.5
X-22.75Y-405.0
X-22.0Y-392.5
X-20.875Y-403.45
X-17.5Y-407.75
X-16.75Y-366.95
X-16.725Y-365.725
X-16.25Y-355.5
X-14.75Y-369.5
X-13.25Y-412.25
X-12.75Y-369.5
X-11.0Y-424.1
X-8.5Y-347.75
X-7.5Y-376.0
X-7.25Y-386.0
X-6.5Y-384.25
X-5.95Y-388.5
X-4.5Y-388.5
X-3.25Y-391.8
X-3.0Y-405.05
X-2.125Y-404.125
X-1.0Y-407.75
X0.75Y-407.75
X2.5Y-365.5
X2.96Y-366.95
X3.55Y-369.5
X4.0Y-353.8
X4.95Y-369.5
X5.0Y-411.5
X8.25Y-424.1
X10.5Y-373.5
X12.0Y-384.5
X12.3Y-386.0
X13.5Y-347.75
X13.55Y-388.5
X14.95Y-388.5
X15.75Y-392.75
X16.0Y-405.0
X18.0Y-404.25
X18.75Y-407.75
X21.0Y-407.75
X21.5Y-366.95
X22.25Y-365.5
X23.0Y-354.0
X23.25Y-443.15
X23.5Y-432.75
X24.5Y-426.5
X25.5Y-413.25
X25.75Y-423.75
X28.0Y-424.1
X28.0Y-426.5
X29.75Y-374.0
X31.25Y-384.75
X31.25Y-386.0
X32.0Y-369.5
X33.05Y-388.5
X34.5Y-347.5
X34.5Y-388.5
X35.0Y-393.75
X35.75Y-405.05
X37.0Y-404.5
X37.5Y-407.75
X39.2Y-407.75
X40.0Y-366.95
X40.65Y-365.35
X40.75Y-354.5
X42.55Y-369.5
X43.75Y-412.0
X43.95Y-369.5
X46.25Y-426.5
X46.75Y-423.75
X47.25Y-443.15
X47.5Y-432.5
X48.25Y-423.75
X49.25Y-373.75
X49.5Y-386.0
X49.875Y-384.375
X50.05Y-388.5
X50.25Y-426.5
X51.45Y-388.5
X53.5Y-392.25
X54.0Y-405.05
X54.25Y-347.5
X55.5Y-404.5
X56.0Y-407.75
X57.75Y-407.75
X59.25Y-354.75
X59.25Y-366.95
X59.5Y-365.75
X61.51Y-369.5
X63.5Y-369.5
X68.5Y-374.75
X69.25Y-384.75
X69.25Y-386.0
X70.8Y-388.5
X72.22Y-388.48
X72.5Y-347.5
X74.0Y-415.0
X78.25Y-405.05
X79.0Y-424.1
X81.75Y-423.25
X82.75Y-397.5
X85.875Y-403.625
X88.05Y-366.95
X88.125Y-365.875
X92.0Y-427.75
X92.25Y-375.0
X93.5Y-386.0
X93.625Y-384.433
X95.0Y-443.15
X95.25Y-435.75
X113.25Y-427.5
X115.75Y-413.75
X116.5Y-424.0
X116.5Y-433.0
X117.5Y-443.15
X118.0Y-393.75
X118.5Y-423.75
X118.5Y-425.5
X137.25Y-443.15
T2
X-154.75Y-350.5
X-154.75Y-352.5
X-149.0Y-350.5
X-149.0Y-352.5
X-130.0Y-369.5
X-130.0Y-371.5
X-106.25Y-426.5
X-106.25Y-428.5
X-64.5Y-388.5
X-64.5Y-390.5
X-25.0Y-350.5
X-25.0Y-352.5
X-22.5Y-407.25
X-22.5Y-409.25
X22.75Y-369.5
X22.75Y-371.5
X81.75Y-427.75
X81.75Y-429.75
X92.5Y-388.5
X92.5Y-390.5
X95.0Y-449.75
X95.0Y-451.75
T3
X-153.0Y-357.38
X-153.0Y-365.0
X-152.4Y-337.899
X-152.4Y-345.519
X-147.75Y-433.75
X-147.75Y-441.37
X-143.5Y-376.75
X-143.5Y-384.37
X-139.75Y-396.0
X-139.75Y-403.62
X-134.0Y-357.38
X-134.0Y-365.0
X-130.25Y-414.75
X-130.25Y-422.37
X-129.5Y-338.75
X-129.5Y-346.37
X-124.5Y-376.75
X-124.5Y-384.37
X-123.75Y-433.75
X-123.75Y-441.37
X-119.75Y-396.0
X-119.75Y-403.62
X-115.0Y-357.38
X-115.0Y-365.0
X-110.25Y-338.63
X-110.25Y-346.25
X-110.25Y-414.75
X-110.25Y-422.37
X-105.5Y-376.75
X-105.5Y-384.37
X-100.75Y-396.0
X-100.75Y-403.62
X-100.0Y-433.75
X-100.0Y-441.37
X-96.0Y-357.75
X-96.0Y-365.37
X-91.5Y-338.5
X-91.5Y-346.12
X-91.25Y-414.75
X-91.25Y-422.37
X-86.25Y-376.75
X-86.25Y-384.37
X-81.75Y-396.0
X-81.75Y-403.62
X-76.75Y-358.0
X-76.75Y-365.62
X-72.0Y-414.75
X-72.0Y-422.37
X-71.25Y-338.38
X-71.25Y-346.0
X-67.25Y-376.75
X-67.25Y-384.37
X-62.75Y-396.0
X-62.75Y-403.62
X-57.75Y-358.0
X-57.75Y-365.62
X-53.0Y-414.75
X-53.0Y-422.37
X-48.25Y-338.19
X-48.25Y-345.81
X-48.25Y-376.75
X-48.25Y-384.37
X-43.5Y-396.0
X-43.5Y-403.62
X-38.75Y-358.0
X-38.75Y-365.62
X-34.0Y-414.75
X-34.0Y-422.37
X-29.25Y-338.38
X-29.25Y-346.0
X-29.25Y-376.75
X-29.25Y-384.37
X-24.5Y-396.0
X-24.5Y-403.62
X-19.75Y-358.0
X-19.75Y-365.62
X-14.75Y-414.75
X-14.75Y-422.37
X-10.25Y-338.38
X-10.25Y-346.0
X-10.0Y-376.75
X-10.0Y-384.37
X-5.25Y-396.0
X-5.25Y-403.62
X-0.75Y-358.0
X-0.75Y-365.62
X4.0Y-414.75
X4.0Y-422.37
X8.75Y-376.75
X8.75Y-384.37
X10.25Y-338.13
X10.25Y-345.75
X13.75Y-396.0
X13.75Y-403.62
X18.5Y-358.0
X18.5Y-365.62
X19.25Y-433.75
X19.25Y-441.37
X23.25Y-414.75
X23.25Y-422.37
X28.0Y-376.75
X28.0Y-384.37
X32.75Y-338.38
X32.75Y-346.0
X32.75Y-396.0
X32.75Y-403.62
X37.5Y-358.0
X37.5Y-365.62
X42.25Y-414.75
X42.25Y-422.37
X42.75Y-433.75
X42.75Y-441.37
X47.0Y-376.75
X47.0Y-384.37
X51.75Y-338.38
X51.75Y-346.0
X51.75Y-396.0
X51.75Y-403.62
X56.5Y-358.0
X56.5Y-365.62
X62.0Y-414.75
X62.0Y-422.37
X66.0Y-376.75
X66.0Y-384.37
X66.75Y-433.75
X66.75Y-441.37
X70.75Y-337.88
X70.75Y-345.5
X71.5Y-396.0
X71.5Y-403.62
X76.5Y-358.0
X76.5Y-365.62
X86.0Y-376.75
X86.0Y-384.37
X91.0Y-337.88
X91.0Y-345.5
X113.0Y-414.75
X113.0Y-422.37
X113.75Y-433.75
X113.75Y-441.37
X114.25Y-358.0
X114.25Y-365.62
X114.25Y-376.75
X114.25Y-384.37
X114.5Y-396.0
X114.5Y-403.62
X116.0Y-339.75
X116.0Y-347.37
X132.75Y-433.75
X132.75Y-441.37
X133.5Y-414.75
X133.5Y-422.37
X152.25Y-433.75
X152.25Y-441.37
X152.75Y-327.5
X152.75Y-337.66
T4
X98.466Y-340.047
X98.466Y-342.547
X98.466Y-345.047
X112.966Y-340.047
X112.966Y-345.047
X130.61Y-328.183
X130.61Y-330.722
X130.61Y-333.262
X130.61Y-335.803
X130.61Y-338.342
X130.61Y-340.882
X130.61Y-343.422
X130.61Y-345.962
X130.61Y-348.502
X130.61Y-351.042
X130.61Y-353.582
X130.61Y-356.123
X130.61Y-358.662
X130.61Y-361.202
X130.61Y-363.743
X130.61Y-366.282
X130.61Y-368.822
X130.61Y-371.363
X130.61Y-373.902
X130.61Y-376.442
X139.144Y-389.334
X141.684Y-389.334
X144.224Y-389.334
X146.764Y-389.334
X148.39Y-328.183
X148.39Y-330.722
X148.39Y-333.262
X148.39Y-335.803
X148.39Y-338.342
X148.39Y-340.882
X148.39Y-343.422
X148.39Y-345.962
X148.39Y-348.502
X148.39Y-351.042
X148.39Y-353.582
X148.39Y-356.123
X148.39Y-358.662
X148.39Y-361.202
X148.39Y-363.743
X148.39Y-366.282
X148.39Y-368.822
X148.39Y-371.363
X148.39Y-373.902
X148.39Y-376.442
T6
X-165.735Y-340.36
X-165.735Y-359.41
X-163.354Y-435.61
X-160.972Y-378.46
X-159.385Y-337.82
X-159.385Y-356.87
X-158.591Y-397.51
X-157.004Y-433.07
X-154.623Y-375.92
X-153.829Y-416.56
X-152.241Y-394.97
X-147.479Y-414.02
X-146.685Y-359.41
X-142.24Y-340.36
X-140.335Y-356.87
X-139.541Y-435.61
X-137.16Y-378.46
X-135.89Y-337.82
X-133.191Y-433.07
X-132.398Y-397.51
X-130.81Y-375.92
X-127.635Y-359.41
X-126.047Y-394.97
X-123.19Y-340.36
X-122.872Y-416.56
X-121.285Y-356.87
X-118.11Y-378.46
X-116.84Y-337.82
X-116.522Y-414.02
X-115.729Y-435.61
X-113.347Y-397.51
X-111.76Y-375.92
X-109.379Y-433.07
X-108.585Y-359.41
X-106.997Y-394.97
X-104.14Y-340.36
X-103.822Y-416.56
X-102.235Y-356.87
X-99.06Y-378.46
X-97.79Y-337.82
X-97.472Y-414.02
X-94.297Y-397.51
X-92.71Y-375.92
X-89.535Y-359.41
X-87.947Y-394.97
X-85.09Y-340.36
X-84.772Y-416.56
X-83.185Y-356.87
X-80.01Y-378.46
X-78.74Y-337.82
X-78.422Y-414.02
X-75.248Y-397.51
X-73.66Y-375.92
X-70.485Y-359.41
X-68.897Y-394.97
X-65.722Y-416.56
X-64.135Y-356.87
X-60.96Y-340.36
X-60.96Y-378.46
X-59.372Y-414.02
X-56.197Y-397.51
X-54.61Y-337.82
X-54.61Y-375.92
X-51.435Y-359.41
X-49.847Y-394.97
X-46.672Y-416.56
X-45.085Y-356.87
X-44.291Y-435.61
X-41.91Y-340.36
X-41.91Y-378.46
X-40.322Y-414.02
X-37.941Y-433.07
X-37.148Y-397.51
X-35.56Y-337.82
X-35.56Y-375.92
X-32.385Y-359.41
X-30.797Y-394.97
X-27.622Y-416.56
X-26.035Y-356.87
X-22.86Y-340.36
X-22.86Y-378.46
X-21.272Y-414.02
X-18.098Y-397.51
X-16.51Y-337.82
X-16.51Y-375.92
X-13.335Y-359.41
X-11.747Y-394.97
X-8.572Y-416.56
X-6.985Y-356.87
X-3.81Y-340.36
X-3.81Y-378.46
X-2.222Y-414.02
X0.952Y-397.51
X2.54Y-337.82
X2.54Y-375.92
X5.715Y-359.41
X7.302Y-394.97
X10.477Y-416.56
X12.065Y-356.87
X15.24Y-378.46
X16.828Y-414.02
X20.002Y-340.36
X20.002Y-397.51
X21.59Y-375.92
X24.765Y-359.41
X26.352Y-337.82
X26.352Y-394.97
X27.146Y-435.61
X29.527Y-416.56
X31.115Y-356.87
X33.496Y-433.07
X34.29Y-378.46
X35.877Y-414.02
X39.052Y-340.36
X39.052Y-397.51
X40.64Y-375.92
X43.815Y-359.41
X45.402Y-337.82
X45.402Y-394.97
X48.578Y-416.56
X50.165Y-356.87
X50.959Y-435.61
X53.34Y-378.46
X54.927Y-414.02
X57.309Y-433.07
X58.102Y-340.36
X58.102Y-397.51
X59.69Y-375.92
X62.865Y-359.41
X64.453Y-337.82
X64.453Y-394.97
X69.215Y-356.87
X72.39Y-378.46
X77.153Y-340.36
X78.74Y-375.92
X83.502Y-337.82
X84.296Y-416.56
X89.059Y-397.51
X90.646Y-414.02
X91.44Y-359.41
X95.409Y-394.97
X96.203Y-378.46
X97.79Y-356.87
X100.965Y-435.61
X102.552Y-375.92
X107.315Y-433.07
X120.015Y-416.56
X120.015Y-435.61
X126.365Y-414.02
X126.365Y-433.07
X139.065Y-435.61
X145.415Y-433.07
T7
X-90.487Y-431.165
X9.525Y-431.165
X80.962Y-393.065
X104.775Y-393.065
T5
G00X105.316Y-336.947
M15
G01X106.616Y-336.947
M16
G05
G00X105.316Y-348.147
M15
G01X106.616Y-348.147
M16
G05
M30
