M48
; DRILL file KiCad 10.0.6 date 2026-09-20T18:34:14
; FORMAT={-:-/ absolute / metric / decimal}
; #@! TF.CreationDate,2026-09-20T18:34:14-04:00
; #@! TF.GenerationSoftware,Kicad,Pcbnew,10.0.6
; #@! TF.FileFunction,NonPlated,1,2,NPTH
FMAT,2
METRIC
; #@! TA.AperFunction,NonPlated,NPTH,ComponentDrill
T1C1.600
; #@! TA.AperFunction,NonPlated,NPTH,ComponentDrill
T2C1.750
; #@! TA.AperFunction,NonPlated,NPTH,ComponentDrill
T3C2.100
; #@! TA.AperFunction,NonPlated,NPTH,ComponentDrill
T4C3.048
; #@! TA.AperFunction,NonPlated,NPTH,ComponentDrill
T5C3.988
%
G90
G05
T2
X-167.005Y-342.9
X-167.005Y-361.95
X-164.624Y-438.15
X-162.243Y-381.0
X-159.861Y-400.05
X-156.845Y-342.9
X-156.845Y-361.95
X-155.099Y-419.1
X-154.464Y-438.15
X-152.082Y-381.0
X-149.701Y-400.05
X-147.955Y-361.95
X-144.939Y-419.1
X-143.51Y-342.9
X-140.811Y-438.15
X-138.43Y-381.0
X-137.795Y-361.95
X-133.667Y-400.05
X-133.35Y-342.9
X-130.651Y-438.15
X-128.905Y-361.95
X-128.27Y-381.0
X-124.46Y-342.9
X-124.142Y-419.1
X-123.507Y-400.05
X-119.38Y-381.0
X-118.745Y-361.95
X-116.999Y-438.15
X-114.617Y-400.05
X-114.3Y-342.9
X-113.983Y-419.1
X-109.855Y-361.95
X-109.22Y-381.0
X-106.839Y-438.15
X-105.41Y-342.9
X-105.093Y-419.1
X-104.457Y-400.05
X-100.33Y-381.0
X-99.695Y-361.95
X-95.567Y-400.05
X-95.25Y-342.9
X-94.932Y-419.1
X-90.805Y-361.95
X-90.17Y-381.0
X-86.36Y-342.9
X-86.042Y-419.1
X-85.407Y-400.05
X-81.28Y-381.0
X-80.645Y-361.95
X-76.517Y-400.05
X-76.2Y-342.9
X-75.882Y-419.1
X-71.755Y-361.95
X-71.12Y-381.0
X-66.992Y-419.1
X-66.358Y-400.05
X-62.23Y-342.9
X-62.23Y-381.0
X-61.595Y-361.95
X-57.467Y-400.05
X-56.832Y-419.1
X-52.705Y-361.95
X-52.07Y-342.9
X-52.07Y-381.0
X-47.942Y-419.1
X-47.307Y-400.05
X-45.561Y-438.15
X-43.18Y-342.9
X-43.18Y-381.0
X-42.545Y-361.95
X-38.417Y-400.05
X-37.782Y-419.1
X-35.401Y-438.15
X-33.655Y-361.95
X-33.02Y-342.9
X-33.02Y-381.0
X-28.892Y-419.1
X-28.258Y-400.05
X-24.13Y-342.9
X-24.13Y-381.0
X-23.495Y-361.95
X-19.367Y-400.05
X-18.732Y-419.1
X-14.605Y-361.95
X-13.97Y-342.9
X-13.97Y-381.0
X-9.842Y-419.1
X-9.207Y-400.05
X-5.08Y-342.9
X-5.08Y-381.0
X-4.445Y-361.95
X-0.318Y-400.05
X0.318Y-419.1
X4.445Y-361.95
X5.08Y-342.9
X5.08Y-381.0
X9.207Y-419.1
X9.842Y-400.05
X13.97Y-381.0
X14.605Y-361.95
X18.732Y-342.9
X18.732Y-400.05
X19.367Y-419.1
X23.495Y-361.95
X24.13Y-381.0
X25.876Y-438.15
X28.258Y-419.1
X28.892Y-342.9
X28.892Y-400.05
X33.02Y-381.0
X33.655Y-361.95
X36.036Y-438.15
X37.782Y-342.9
X37.782Y-400.05
X38.417Y-419.1
X42.545Y-361.95
X43.18Y-381.0
X47.307Y-419.1
X47.942Y-342.9
X47.942Y-400.05
X49.689Y-438.15
X52.07Y-381.0
X52.705Y-361.95
X56.832Y-342.9
X56.832Y-400.05
X57.467Y-419.1
X59.849Y-438.15
X61.595Y-361.95
X62.23Y-381.0
X66.992Y-342.9
X66.992Y-400.05
X71.12Y-381.0
X71.755Y-361.95
X75.882Y-342.9
X81.28Y-381.0
X83.026Y-419.1
X86.042Y-342.9
X87.789Y-400.05
X90.17Y-361.95
X93.186Y-419.1
X94.932Y-381.0
X97.949Y-400.05
X99.695Y-438.15
X100.33Y-361.95
X105.093Y-381.0
X109.855Y-438.15
X118.745Y-419.1
X118.745Y-438.15
X128.905Y-419.1
X128.905Y-438.15
X137.795Y-438.15
X147.955Y-438.15
T3
X105.966Y-342.547
T4
X-161.925Y-412.115
X-138.112Y-412.115
X76.2Y-412.115
X83.344Y-354.965
X100.012Y-412.115
X107.156Y-354.965
T5
X-161.925Y-342.9
X-161.925Y-361.95
X-161.925Y-427.355
X-159.544Y-438.15
X-157.162Y-381.0
X-154.781Y-400.05
X-150.019Y-419.1
X-142.875Y-361.95
X-138.43Y-342.9
X-138.112Y-427.355
X-135.731Y-438.15
X-133.35Y-381.0
X-128.588Y-400.05
X-123.825Y-361.95
X-119.38Y-342.9
X-119.062Y-419.1
X-114.3Y-381.0
X-111.919Y-438.15
X-109.537Y-400.05
X-104.775Y-361.95
X-100.33Y-342.9
X-100.012Y-419.1
X-95.25Y-381.0
X-90.487Y-400.05
X-90.487Y-446.405
X-85.725Y-361.95
X-81.28Y-342.9
X-80.962Y-419.1
X-76.2Y-381.0
X-71.438Y-400.05
X-66.675Y-361.95
X-61.912Y-419.1
X-57.15Y-342.9
X-57.15Y-381.0
X-52.387Y-400.05
X-47.625Y-361.95
X-42.862Y-419.1
X-40.481Y-438.15
X-38.1Y-342.9
X-38.1Y-381.0
X-33.337Y-400.05
X-28.575Y-361.95
X-23.812Y-419.1
X-19.05Y-342.9
X-19.05Y-381.0
X-14.287Y-400.05
X-9.525Y-361.95
X-4.763Y-419.1
X0.0Y-342.9
X0.0Y-381.0
X4.763Y-400.05
X9.525Y-361.95
X9.525Y-446.405
X14.287Y-419.1
X19.05Y-381.0
X23.812Y-342.9
X23.812Y-400.05
X28.575Y-361.95
X30.956Y-438.15
X33.337Y-419.1
X38.1Y-381.0
X42.862Y-342.9
X42.862Y-400.05
X47.625Y-361.95
X52.387Y-419.1
X54.769Y-438.15
X57.15Y-381.0
X61.912Y-342.9
X61.912Y-400.05
X66.675Y-361.95
X76.2Y-381.0
X76.2Y-427.355
X80.962Y-342.9
X80.962Y-408.305
X83.344Y-370.205
X88.106Y-419.1
X92.869Y-400.05
X95.25Y-361.95
X100.012Y-381.0
X100.012Y-427.355
X104.775Y-408.305
X104.775Y-438.15
X107.156Y-370.205
X123.825Y-419.1
X123.825Y-438.15
X142.875Y-438.15
T1
G00X101.166Y-342.547
M15
G01X101.766Y-342.547
M16
G05
M30
