M48
; DRILL file KiCad 10.0.6 date 2026-09-11T21:36:05
; FORMAT={-:-/ absolute / metric / decimal}
; #@! TF.CreationDate,2026-09-11T21:36:05-04:00
; #@! TF.GenerationSoftware,Kicad,Pcbnew,10.0.6
; #@! TF.FileFunction,NonPlated,1,2,NPTH
FMAT,2
METRIC
; #@! TA.AperFunction,NonPlated,NPTH,ComponentDrill
T1C1.600
; #@! TA.AperFunction,NonPlated,NPTH,ComponentDrill
T2C1.750
; #@! TA.AperFunction,NonPlated,NPTH,ComponentDrill
T3C2.100
; #@! TA.AperFunction,NonPlated,NPTH,ComponentDrill
T4C3.048
; #@! TA.AperFunction,NonPlated,NPTH,ComponentDrill
T5C3.988
%
G90
G05
T2
X402.16Y-24.44
X402.16Y-43.48
X408.47Y-62.7
X409.5Y-81.65
X412.32Y-24.44
X412.32Y-43.48
X412.42Y-119.75
X412.45Y-100.65
X418.63Y-62.7
X419.66Y-81.65
X422.58Y-119.75
X422.61Y-100.65
X428.79Y-43.53
X430.735Y-24.44
X437.78Y-119.73
X438.95Y-43.53
X439.15Y-62.6
X440.895Y-24.44
X442.14Y-81.67
X447.84Y-43.53
X447.94Y-119.73
X449.31Y-62.6
X449.75Y-24.44
X452.3Y-81.67
X455.12Y-100.68
X458.0Y-43.53
X458.2Y-62.6
X459.91Y-24.44
X461.13Y-119.74
X461.18Y-81.64
X465.28Y-100.68
X466.9Y-43.53
X468.36Y-62.6
X468.8Y-24.44
X471.29Y-119.74
X471.34Y-81.64
X474.18Y-100.69
X477.06Y-43.53
X477.25Y-62.59
X478.96Y-24.44
X480.23Y-81.64
X484.34Y-100.69
X485.94Y-43.53
X487.41Y-62.59
X487.85Y-24.44
X490.39Y-81.64
X493.23Y-100.69
X496.1Y-43.53
X496.3Y-62.6
X498.01Y-24.44
X499.28Y-81.64
X503.39Y-100.69
X505.01Y-43.53
X506.46Y-62.6
X509.44Y-81.64
X512.28Y-100.69
X515.17Y-43.53
X515.35Y-62.56
X516.47Y-24.44
X518.33Y-81.59
X522.44Y-100.69
X524.05Y-43.53
X525.51Y-62.56
X526.63Y-24.44
X528.49Y-81.59
X530.17Y-119.85
X531.33Y-100.65
X534.21Y-43.53
X534.41Y-62.54
X535.51Y-24.44
X537.38Y-81.59
X540.33Y-119.85
X541.49Y-100.65
X543.08Y-43.53
X544.57Y-62.54
X545.67Y-24.44
X547.54Y-81.59
X550.42Y-100.65
X553.24Y-43.53
X553.46Y-62.59
X554.56Y-24.44
X556.45Y-81.55
X560.58Y-100.65
X562.11Y-43.53
X563.62Y-62.59
X564.72Y-24.44
X566.61Y-81.55
X569.47Y-100.64
X572.27Y-43.53
X572.51Y-62.59
X573.61Y-24.44
X575.48Y-81.64
X579.63Y-100.64
X581.15Y-43.53
X582.67Y-62.59
X583.77Y-24.44
X585.64Y-81.64
X588.58Y-100.68
X591.31Y-43.53
X591.56Y-62.59
X594.53Y-81.64
X598.74Y-100.68
X599.23Y-119.74
X600.23Y-43.53
X601.72Y-62.59
X602.195Y-24.44
X604.69Y-81.64
X607.63Y-100.69
X609.39Y-119.74
X610.39Y-43.53
X610.61Y-62.59
X612.355Y-24.44
X613.58Y-81.64
X617.79Y-100.69
X618.28Y-119.74
X619.34Y-43.53
X620.77Y-62.59
X621.25Y-24.44
X623.74Y-81.64
X626.7Y-100.69
X628.44Y-119.74
X629.5Y-43.53
X629.66Y-62.59
X631.41Y-24.44
X632.63Y-81.64
X636.86Y-100.69
X638.47Y-43.54
X639.82Y-62.59
X640.31Y-24.44
X642.79Y-81.64
X648.63Y-43.54
X648.71Y-62.59
X650.47Y-24.44
X656.93Y-100.74
X658.87Y-62.59
X659.35Y-24.44
X661.28Y-81.68
X667.09Y-100.74
X667.18Y-43.58
X667.75Y-62.59
X668.89Y-119.77
X669.51Y-24.44
X671.44Y-81.68
X677.34Y-43.58
X677.91Y-62.59
X679.05Y-119.77
X687.93Y-100.74
X687.94Y-119.78
X698.09Y-100.74
X698.1Y-119.78
X706.99Y-119.78
X717.15Y-119.78
T3
X689.95Y-23.35
T4
X405.688Y-93.71
X429.5Y-93.71
X654.4Y-74.7
X660.294Y-36.615
X678.212Y-74.7
X684.106Y-36.615
T5
X405.688Y-108.95
X407.24Y-24.44
X407.24Y-43.48
X413.55Y-62.7
X414.58Y-81.65
X417.5Y-119.75
X417.53Y-100.65
X429.5Y-108.95
X433.87Y-43.53
X435.815Y-24.44
X442.86Y-119.73
X444.23Y-62.6
X447.22Y-81.67
X452.92Y-43.53
X454.83Y-24.44
X460.2Y-100.68
X463.28Y-62.6
X466.21Y-119.74
X466.26Y-81.64
X471.98Y-43.53
X473.88Y-24.44
X479.26Y-100.69
X482.33Y-62.59
X485.25Y-128.04
X485.31Y-81.64
X491.02Y-43.53
X492.93Y-24.44
X498.31Y-100.69
X501.38Y-62.6
X504.36Y-81.64
X510.09Y-43.53
X517.36Y-100.69
X520.43Y-62.56
X521.55Y-24.44
X523.41Y-81.59
X529.13Y-43.53
X535.25Y-119.85
X536.41Y-100.65
X539.49Y-62.54
X540.59Y-24.44
X542.46Y-81.59
X548.16Y-43.53
X555.5Y-100.65
X558.54Y-62.59
X559.64Y-24.44
X561.53Y-81.55
X567.19Y-43.53
X574.55Y-100.64
X577.59Y-62.59
X578.69Y-24.44
X580.56Y-81.64
X585.262Y-128.04
X586.23Y-43.53
X593.66Y-100.68
X596.64Y-62.59
X599.61Y-81.64
X604.31Y-119.74
X605.31Y-43.53
X607.275Y-24.44
X612.71Y-100.69
X615.69Y-62.59
X618.66Y-81.64
X623.36Y-119.74
X624.42Y-43.53
X626.33Y-24.44
X631.78Y-100.69
X634.74Y-62.59
X637.71Y-81.64
X643.55Y-43.54
X645.39Y-24.44
X653.79Y-62.59
X654.4Y-89.94
X660.294Y-51.855
X662.01Y-100.74
X664.43Y-24.44
X666.36Y-81.68
X672.26Y-43.58
X672.83Y-62.59
X673.97Y-119.77
X678.212Y-89.94
X684.106Y-51.855
X693.01Y-100.74
X693.02Y-119.78
X712.07Y-119.78
T1
G00X685.15Y-23.35
M15
G01X685.75Y-23.35
M16
G05
M30
