M48
; DRILL file KiCad 10.0.6 date 2026-09-11T21:36:05
; FORMAT={-:-/ absolute / metric / decimal}
; #@! TF.CreationDate,2026-09-11T21:36:05-04:00
; #@! TF.GenerationSoftware,Kicad,Pcbnew,10.0.6
; #@! TF.FileFunction,Plated,1,2,PTH
FMAT,2
METRIC
; #@! TA.AperFunction,Plated,PTH,ComponentDrill
T1C0.800
; #@! TA.AperFunction,Plated,PTH,ComponentDrill
T2C1.000
; #@! TA.AperFunction,Plated,PTH,ComponentDrill
T3C1.500
; #@! TA.AperFunction,Plated,PTH,ComponentDrill
T4C1.524
; #@! TA.AperFunction,Plated,PTH,ComponentDrill
T5C3.048
%
G90
G05
T1
X416.75Y-19.37
X416.75Y-26.99
X416.8Y-38.6
X416.8Y-46.22
X423.1Y-57.55
X423.1Y-65.17
X424.1Y-76.65
X424.1Y-84.27
X427.0Y-114.85
X427.0Y-122.47
X436.6Y-95.75
X436.6Y-103.37
X443.4Y-38.45
X443.4Y-46.07
X445.35Y-19.4
X445.35Y-27.02
X452.35Y-114.85
X452.35Y-122.47
X453.75Y-57.6
X453.75Y-65.22
X456.8Y-76.64
X456.8Y-84.26
X462.5Y-38.4
X462.5Y-46.02
X464.45Y-19.3
X464.45Y-26.92
X469.75Y-95.48
X469.75Y-103.1
X472.75Y-57.6
X472.75Y-65.22
X475.8Y-76.75
X475.8Y-84.37
X475.9Y-114.7
X475.9Y-122.32
X481.5Y-38.5
X481.5Y-46.12
X483.35Y-19.4
X483.35Y-27.02
X488.9Y-96.0
X488.9Y-103.62
X491.85Y-57.45
X491.85Y-65.07
X494.9Y-76.55
X494.9Y-84.17
X500.55Y-38.6
X500.55Y-46.22
X502.45Y-19.35
X502.45Y-26.97
X507.7Y-95.65
X507.7Y-103.27
X510.95Y-57.65
X510.95Y-65.27
X513.9Y-76.55
X513.9Y-84.17
X519.65Y-38.6
X519.65Y-46.22
X527.0Y-95.65
X527.0Y-103.27
X530.0Y-57.43
X530.0Y-65.05
X531.1Y-19.35
X531.1Y-26.97
X533.1Y-76.55
X533.1Y-84.17
X538.75Y-38.5
X538.75Y-46.12
X545.9Y-95.65
X545.9Y-103.27
X549.0Y-57.6
X549.0Y-65.22
X550.15Y-19.4
X550.15Y-27.02
X552.1Y-76.55
X552.1Y-84.17
X557.75Y-38.5
X557.75Y-46.12
X564.95Y-95.65
X564.95Y-103.27
X568.2Y-57.39
X568.2Y-65.01
X569.2Y-19.5
X569.2Y-27.12
X570.9Y-76.4
X570.9Y-84.02
X576.7Y-38.5
X576.7Y-46.12
X584.1Y-95.4
X584.1Y-103.02
X587.2Y-57.5
X587.2Y-65.12
X588.2Y-19.3
X588.2Y-26.92
X590.05Y-76.55
X590.05Y-84.17
X594.95Y-114.6
X594.95Y-122.22
X595.9Y-38.4
X595.9Y-46.02
X603.15Y-95.65
X603.15Y-103.27
X606.25Y-57.6
X606.25Y-65.22
X609.2Y-76.7
X609.2Y-84.32
X613.9Y-114.75
X613.9Y-122.37
X614.95Y-38.5
X614.95Y-46.12
X616.8Y-19.4
X616.8Y-27.02
X622.5Y-95.65
X622.5Y-103.27
X625.2Y-57.59
X625.2Y-65.21
X628.4Y-76.7
X628.4Y-84.32
X632.95Y-114.6
X632.95Y-122.22
X634.05Y-38.6
X634.05Y-46.22
X635.9Y-19.35
X635.9Y-26.97
X641.45Y-95.4
X641.45Y-103.02
X644.35Y-57.5
X644.35Y-65.12
X647.4Y-76.7
X647.4Y-84.32
X653.2Y-38.4
X653.2Y-46.02
X654.95Y-19.35
X654.95Y-26.97
X663.3Y-57.5
X663.3Y-65.12
X671.53Y-95.69
X671.53Y-103.31
X674.05Y-19.5
X674.05Y-27.12
X682.5Y-57.59
X682.5Y-65.21
X683.68Y-114.64
X683.68Y-122.26
X685.45Y-76.85
X685.45Y-84.47
X691.35Y-39.75
X691.35Y-47.37
X702.53Y-114.64
X702.53Y-122.26
X702.63Y-95.59
X702.63Y-103.21
X721.73Y-114.64
X721.73Y-122.26
T2
X682.45Y-20.85
X682.45Y-23.35
X682.45Y-25.85
X696.95Y-20.85
X696.95Y-25.85
X704.85Y-6.87
X704.85Y-9.41
X704.85Y-11.95
X704.85Y-14.49
X704.85Y-17.03
X704.85Y-19.57
X704.85Y-22.11
X704.85Y-24.65
X704.85Y-27.19
X704.85Y-29.73
X704.85Y-32.27
X704.85Y-34.81
X704.85Y-37.35
X704.85Y-39.89
X704.85Y-42.43
X704.85Y-44.97
X704.85Y-47.51
X704.85Y-50.05
X704.85Y-52.59
X704.85Y-55.13
X712.115Y-69.225
X714.655Y-69.225
X717.195Y-69.225
X719.735Y-69.225
X722.63Y-6.87
X722.63Y-9.41
X722.63Y-11.95
X722.63Y-14.49
X722.63Y-17.03
X722.63Y-19.57
X722.63Y-22.11
X722.63Y-24.65
X722.63Y-27.19
X722.63Y-29.73
X722.63Y-32.27
X722.63Y-34.81
X722.63Y-37.35
X722.63Y-39.89
X722.63Y-42.43
X722.63Y-44.97
X722.63Y-47.51
X722.63Y-50.05
X722.63Y-52.59
X722.63Y-55.13
T4
X403.43Y-21.9
X403.43Y-40.94
X409.74Y-60.16
X409.78Y-19.36
X409.78Y-38.4
X410.77Y-79.11
X413.69Y-117.21
X413.72Y-98.11
X416.09Y-57.62
X417.12Y-76.57
X420.04Y-114.67
X420.07Y-95.57
X430.06Y-40.99
X432.005Y-21.9
X436.41Y-38.45
X438.355Y-19.36
X439.05Y-117.19
X440.42Y-60.06
X443.41Y-79.13
X445.4Y-114.65
X446.77Y-57.52
X449.11Y-40.99
X449.76Y-76.59
X451.02Y-21.9
X455.46Y-38.45
X456.39Y-98.14
X457.37Y-19.36
X459.47Y-60.06
X462.4Y-117.2
X462.45Y-79.1
X462.74Y-95.6
X465.82Y-57.52
X468.17Y-40.99
X468.75Y-114.66
X468.8Y-76.56
X470.07Y-21.9
X474.52Y-38.45
X475.45Y-98.15
X476.42Y-19.36
X478.52Y-60.05
X481.5Y-79.1
X481.8Y-95.61
X484.87Y-57.51
X487.21Y-40.99
X487.85Y-76.56
X489.12Y-21.9
X493.56Y-38.45
X494.5Y-98.15
X495.47Y-19.36
X497.57Y-60.06
X500.55Y-79.1
X500.85Y-95.61
X503.92Y-57.52
X506.28Y-40.99
X506.9Y-76.56
X512.63Y-38.45
X513.55Y-98.15
X516.62Y-60.02
X517.74Y-21.9
X519.6Y-79.05
X519.9Y-95.61
X522.97Y-57.48
X524.09Y-19.36
X525.32Y-40.99
X525.95Y-76.51
X531.44Y-117.31
X531.67Y-38.45
X532.6Y-98.11
X535.68Y-60.0
X536.78Y-21.9
X537.79Y-114.77
X538.65Y-79.05
X538.95Y-95.57
X542.03Y-57.46
X543.13Y-19.36
X544.35Y-40.99
X545.0Y-76.51
X550.7Y-38.45
X551.69Y-98.11
X554.73Y-60.05
X555.83Y-21.9
X557.72Y-79.01
X558.04Y-95.57
X561.08Y-57.51
X562.18Y-19.36
X563.38Y-40.99
X564.07Y-76.47
X569.73Y-38.45
X570.74Y-98.1
X573.78Y-60.05
X574.88Y-21.9
X576.75Y-79.1
X577.09Y-95.56
X580.13Y-57.51
X581.23Y-19.36
X582.42Y-40.99
X583.1Y-76.56
X588.77Y-38.45
X589.85Y-98.14
X592.83Y-60.05
X595.8Y-79.1
X596.2Y-95.6
X599.18Y-57.51
X600.5Y-117.2
X601.5Y-40.99
X602.15Y-76.56
X603.465Y-21.9
X606.85Y-114.66
X607.85Y-38.45
X608.9Y-98.15
X609.815Y-19.36
X611.88Y-60.05
X614.85Y-79.1
X615.25Y-95.61
X618.23Y-57.51
X619.55Y-117.2
X620.61Y-40.99
X621.2Y-76.56
X622.52Y-21.9
X625.9Y-114.66
X626.96Y-38.45
X627.97Y-98.15
X628.87Y-19.36
X630.93Y-60.05
X633.9Y-79.1
X634.32Y-95.61
X637.28Y-57.51
X639.74Y-41.0
X640.25Y-76.56
X641.58Y-21.9
X646.09Y-38.46
X647.93Y-19.36
X649.98Y-60.05
X656.33Y-57.51
X658.2Y-98.2
X660.62Y-21.9
X662.55Y-79.14
X664.55Y-95.66
X666.97Y-19.36
X668.45Y-41.04
X668.9Y-76.6
X669.02Y-60.05
X670.16Y-117.23
X674.8Y-38.5
X675.37Y-57.51
X676.51Y-114.69
X689.2Y-98.2
X689.21Y-117.24
X695.55Y-95.66
X695.56Y-114.7
X708.26Y-117.24
X714.61Y-114.7
T5
X485.25Y-112.8
X585.262Y-112.8
T3
G00X689.3Y-17.75
M15
G01X690.6Y-17.75
M16
G05
G00X689.3Y-28.95
M15
G01X690.6Y-28.95
M16
G05
M30
