M48
; DRILL file KiCad 10.0.6 date 2026-09-13T00:24:07
; FORMAT={-:-/ absolute / metric / decimal}
; #@! TF.CreationDate,2026-09-13T00:24:07-04:00
; #@! TF.GenerationSoftware,Kicad,Pcbnew,10.0.6
; #@! TF.FileFunction,NonPlated,1,2,NPTH
FMAT,2
METRIC
; #@! TA.AperFunction,NonPlated,NPTH,ComponentDrill
T1C1.600
; #@! TA.AperFunction,NonPlated,NPTH,ComponentDrill
T2C1.750
; #@! TA.AperFunction,NonPlated,NPTH,ComponentDrill
T3C2.100
; #@! TA.AperFunction,NonPlated,NPTH,ComponentDrill
T4C3.048
; #@! TA.AperFunction,NonPlated,NPTH,ComponentDrill
T5C3.988
%
G90
G05
T2
X-6.92Y-55.08
X-6.92Y-74.12
X-0.61Y-93.34
X0.42Y-112.29
X3.24Y-55.08
X3.24Y-74.12
X3.34Y-150.39
X3.37Y-131.29
X9.55Y-93.34
X10.58Y-112.29
X13.5Y-150.39
X13.53Y-131.29
X19.71Y-74.17
X21.655Y-55.08
X28.7Y-150.37
X29.87Y-74.17
X30.07Y-93.24
X31.815Y-55.08
X33.06Y-112.31
X38.76Y-74.17
X38.86Y-150.37
X40.23Y-93.24
X40.67Y-55.08
X43.22Y-112.31
X46.04Y-131.32
X48.92Y-74.17
X49.12Y-93.24
X50.83Y-55.08
X52.05Y-150.38
X52.1Y-112.28
X56.2Y-131.32
X57.82Y-74.17
X59.28Y-93.24
X59.72Y-55.08
X62.21Y-150.38
X62.26Y-112.28
X65.1Y-131.33
X67.98Y-74.17
X68.17Y-93.23
X69.88Y-55.08
X71.15Y-112.28
X75.26Y-131.33
X76.86Y-74.17
X78.33Y-93.23
X78.77Y-55.08
X81.31Y-112.28
X84.15Y-131.33
X87.02Y-74.17
X87.22Y-93.24
X88.93Y-55.08
X90.2Y-112.28
X94.31Y-131.33
X95.93Y-74.17
X97.38Y-93.24
X100.36Y-112.28
X103.2Y-131.33
X106.09Y-74.17
X106.27Y-93.2
X107.39Y-55.08
X109.25Y-112.23
X113.36Y-131.33
X114.97Y-74.17
X116.43Y-93.2
X117.55Y-55.08
X119.41Y-112.23
X121.09Y-150.49
X122.25Y-131.29
X125.13Y-74.17
X125.33Y-93.18
X126.43Y-55.08
X128.3Y-112.23
X131.25Y-150.49
X132.41Y-131.29
X134.0Y-74.17
X135.49Y-93.18
X136.59Y-55.08
X138.46Y-112.23
X141.34Y-131.29
X144.16Y-74.17
X144.38Y-93.23
X145.48Y-55.08
X147.37Y-112.19
X151.5Y-131.29
X153.03Y-74.17
X154.54Y-93.23
X155.64Y-55.08
X157.53Y-112.19
X160.39Y-131.28
X163.19Y-74.17
X163.43Y-93.23
X164.53Y-55.08
X166.4Y-112.28
X170.55Y-131.28
X172.07Y-74.17
X173.59Y-93.23
X174.69Y-55.08
X176.56Y-112.28
X179.5Y-131.32
X182.23Y-74.17
X182.48Y-93.23
X185.45Y-112.28
X189.66Y-131.32
X190.15Y-150.38
X191.15Y-74.17
X192.64Y-93.23
X193.115Y-55.08
X195.61Y-112.28
X198.55Y-131.33
X200.31Y-150.38
X201.31Y-74.17
X201.53Y-93.23
X203.275Y-55.08
X204.5Y-112.28
X208.71Y-131.33
X209.2Y-150.38
X210.26Y-74.17
X211.69Y-93.23
X212.17Y-55.08
X214.66Y-112.28
X217.62Y-131.33
X219.36Y-150.38
X220.42Y-74.17
X220.58Y-93.23
X222.33Y-55.08
X223.55Y-112.28
X227.78Y-131.33
X229.39Y-74.18
X230.74Y-93.23
X231.23Y-55.08
X233.71Y-112.28
X239.55Y-74.18
X239.63Y-93.23
X241.39Y-55.08
X247.85Y-131.38
X249.79Y-93.23
X250.27Y-55.08
X252.2Y-112.32
X258.01Y-131.38
X258.1Y-74.22
X258.67Y-93.23
X259.81Y-150.41
X260.43Y-55.08
X262.36Y-112.32
X268.26Y-74.22
X268.83Y-93.23
X269.97Y-150.41
X278.85Y-131.38
X278.86Y-150.42
X289.01Y-131.38
X289.02Y-150.42
X297.91Y-150.42
X308.07Y-150.42
T3
X280.4Y-54.2
T4
X-3.392Y-124.35
X20.42Y-124.35
X245.32Y-105.34
X251.214Y-67.255
X269.132Y-105.34
X275.026Y-67.255
T5
X-3.392Y-139.59
X-1.84Y-55.08
X-1.84Y-74.12
X4.47Y-93.34
X5.5Y-112.29
X8.42Y-150.39
X8.45Y-131.29
X20.42Y-139.59
X24.79Y-74.17
X26.735Y-55.08
X33.78Y-150.37
X35.15Y-93.24
X38.14Y-112.31
X43.84Y-74.17
X45.75Y-55.08
X51.12Y-131.32
X54.2Y-93.24
X57.13Y-150.38
X57.18Y-112.28
X62.9Y-74.17
X64.8Y-55.08
X70.18Y-131.33
X73.25Y-93.23
X76.17Y-158.68
X76.23Y-112.28
X81.94Y-74.17
X83.85Y-55.08
X89.23Y-131.33
X92.3Y-93.24
X95.28Y-112.28
X101.01Y-74.17
X108.28Y-131.33
X111.35Y-93.2
X112.47Y-55.08
X114.33Y-112.23
X120.05Y-74.17
X126.17Y-150.49
X127.33Y-131.29
X130.41Y-93.18
X131.51Y-55.08
X133.38Y-112.23
X139.08Y-74.17
X146.42Y-131.29
X149.46Y-93.23
X150.56Y-55.08
X152.45Y-112.19
X158.11Y-74.17
X165.47Y-131.28
X168.51Y-93.23
X169.61Y-55.08
X171.48Y-112.28
X176.183Y-158.68
X177.15Y-74.17
X184.58Y-131.32
X187.56Y-93.23
X190.53Y-112.28
X195.23Y-150.38
X196.23Y-74.17
X198.195Y-55.08
X203.63Y-131.33
X206.61Y-93.23
X209.58Y-112.28
X214.28Y-150.38
X215.34Y-74.17
X217.25Y-55.08
X222.7Y-131.33
X225.66Y-93.23
X228.63Y-112.28
X234.47Y-74.18
X236.31Y-55.08
X244.71Y-93.23
X245.32Y-120.58
X251.214Y-82.495
X252.93Y-131.38
X255.35Y-55.08
X257.28Y-112.32
X263.18Y-74.22
X263.75Y-93.23
X264.89Y-150.41
X269.132Y-120.58
X275.026Y-82.495
X283.93Y-131.38
X283.94Y-150.42
X302.99Y-150.42
T1
G00X275.6Y-54.2
M15
G01X276.2Y-54.2
M16
G05
M30
