M48
; DRILL file KiCad 10.0.6 date 2026-09-13T00:24:07
; FORMAT={-:-/ absolute / metric / decimal}
; #@! TF.CreationDate,2026-09-13T00:24:07-04:00
; #@! TF.GenerationSoftware,Kicad,Pcbnew,10.0.6
; #@! TF.FileFunction,Plated,1,2,PTH
FMAT,2
METRIC
; #@! TA.AperFunction,Plated,PTH,ComponentDrill
T1C0.800
; #@! TA.AperFunction,Plated,PTH,ComponentDrill
T2C1.000
; #@! TA.AperFunction,Plated,PTH,ComponentDrill
T3C1.500
; #@! TA.AperFunction,Plated,PTH,ComponentDrill
T4C1.524
; #@! TA.AperFunction,Plated,PTH,ComponentDrill
T5C3.048
%
G90
G05
T1
X7.67Y-50.01
X7.67Y-57.63
X7.72Y-69.24
X7.72Y-76.86
X14.02Y-88.19
X14.02Y-95.81
X15.02Y-107.29
X15.02Y-114.91
X17.92Y-145.49
X17.92Y-153.11
X27.52Y-126.39
X27.52Y-134.01
X34.32Y-69.09
X34.32Y-76.71
X36.27Y-50.04
X36.27Y-57.66
X43.27Y-145.49
X43.27Y-153.11
X44.67Y-88.24
X44.67Y-95.86
X47.72Y-107.28
X47.72Y-114.9
X53.42Y-69.04
X53.42Y-76.66
X55.37Y-49.94
X55.37Y-57.56
X60.67Y-126.12
X60.67Y-133.74
X63.67Y-88.24
X63.67Y-95.86
X66.72Y-107.39
X66.72Y-115.01
X66.82Y-145.34
X66.82Y-152.96
X72.42Y-69.14
X72.42Y-76.76
X74.27Y-50.04
X74.27Y-57.66
X79.82Y-126.64
X79.82Y-134.26
X82.77Y-88.09
X82.77Y-95.71
X85.82Y-107.19
X85.82Y-114.81
X91.47Y-69.24
X91.47Y-76.86
X93.37Y-49.99
X93.37Y-57.61
X98.62Y-126.29
X98.62Y-133.91
X101.87Y-88.29
X101.87Y-95.91
X104.82Y-107.19
X104.82Y-114.81
X110.57Y-69.24
X110.57Y-76.86
X117.92Y-126.29
X117.92Y-133.91
X120.92Y-88.07
X120.92Y-95.69
X122.02Y-49.99
X122.02Y-57.61
X124.02Y-107.19
X124.02Y-114.81
X129.67Y-69.14
X129.67Y-76.76
X136.82Y-126.29
X136.82Y-133.91
X139.92Y-88.24
X139.92Y-95.86
X141.07Y-50.04
X141.07Y-57.66
X143.02Y-107.19
X143.02Y-114.81
X148.67Y-69.14
X148.67Y-76.76
X155.87Y-126.29
X155.87Y-133.91
X159.12Y-88.03
X159.12Y-95.65
X160.12Y-50.14
X160.12Y-57.76
X161.82Y-107.04
X161.82Y-114.66
X167.62Y-69.14
X167.62Y-76.76
X175.02Y-126.04
X175.02Y-133.66
X178.12Y-88.14
X178.12Y-95.76
X179.12Y-49.94
X179.12Y-57.56
X180.97Y-107.19
X180.97Y-114.81
X185.87Y-145.24
X185.87Y-152.86
X186.82Y-69.04
X186.82Y-76.66
X194.07Y-126.29
X194.07Y-133.91
X197.17Y-88.24
X197.17Y-95.86
X200.12Y-107.34
X200.12Y-114.96
X204.82Y-145.39
X204.82Y-153.01
X205.87Y-69.14
X205.87Y-76.76
X207.72Y-50.04
X207.72Y-57.66
X213.42Y-126.29
X213.42Y-133.91
X216.12Y-88.23
X216.12Y-95.85
X219.32Y-107.34
X219.32Y-114.96
X223.87Y-145.24
X223.87Y-152.86
X224.97Y-69.24
X224.97Y-76.86
X226.82Y-49.99
X226.82Y-57.61
X232.37Y-126.04
X232.37Y-133.66
X235.27Y-88.14
X235.27Y-95.76
X238.32Y-107.34
X238.32Y-114.96
X244.12Y-69.04
X244.12Y-76.66
X245.87Y-49.99
X245.87Y-57.61
X254.22Y-88.14
X254.22Y-95.76
X262.45Y-126.33
X262.45Y-133.95
X264.65Y-49.9
X264.65Y-57.52
X268.6Y-49.9
X268.6Y-57.52
X273.42Y-88.23
X273.42Y-95.85
X274.6Y-145.28
X274.6Y-152.9
X276.37Y-107.49
X276.37Y-115.11
X282.27Y-70.39
X282.27Y-78.01
X293.45Y-145.28
X293.45Y-152.9
X293.55Y-126.23
X293.55Y-133.85
X312.65Y-145.28
X312.65Y-152.9
T2
X272.9Y-51.7
X272.9Y-54.2
X272.9Y-56.7
X287.4Y-51.7
X287.4Y-56.7
X295.77Y-37.51
X295.77Y-40.05
X295.77Y-42.59
X295.77Y-45.13
X295.77Y-47.67
X295.77Y-50.21
X295.77Y-52.75
X295.77Y-55.29
X295.77Y-57.83
X295.77Y-60.37
X295.77Y-62.91
X295.77Y-65.45
X295.77Y-67.99
X295.77Y-70.53
X295.77Y-73.07
X295.77Y-75.61
X295.77Y-78.15
X295.77Y-80.69
X295.77Y-83.23
X295.77Y-85.77
X303.035Y-99.865
X305.575Y-99.865
X308.115Y-99.865
X310.655Y-99.865
X313.55Y-37.51
X313.55Y-40.05
X313.55Y-42.59
X313.55Y-45.13
X313.55Y-47.67
X313.55Y-50.21
X313.55Y-52.75
X313.55Y-55.29
X313.55Y-57.83
X313.55Y-60.37
X313.55Y-62.91
X313.55Y-65.45
X313.55Y-67.99
X313.55Y-70.53
X313.55Y-73.07
X313.55Y-75.61
X313.55Y-78.15
X313.55Y-80.69
X313.55Y-83.23
X313.55Y-85.77
T4
X-5.65Y-52.54
X-5.65Y-71.58
X0.66Y-90.8
X0.7Y-50.0
X0.7Y-69.04
X1.69Y-109.75
X4.61Y-147.85
X4.64Y-128.75
X7.01Y-88.26
X8.04Y-107.21
X10.96Y-145.31
X10.99Y-126.21
X20.98Y-71.63
X22.925Y-52.54
X27.33Y-69.09
X29.275Y-50.0
X29.97Y-147.83
X31.34Y-90.7
X34.33Y-109.77
X36.32Y-145.29
X37.69Y-88.16
X40.03Y-71.63
X40.68Y-107.23
X41.94Y-52.54
X46.38Y-69.09
X47.31Y-128.78
X48.29Y-50.0
X50.39Y-90.7
X53.32Y-147.84
X53.37Y-109.74
X53.66Y-126.24
X56.74Y-88.16
X59.09Y-71.63
X59.67Y-145.3
X59.72Y-107.2
X60.99Y-52.54
X65.44Y-69.09
X66.37Y-128.79
X67.34Y-50.0
X69.44Y-90.69
X72.42Y-109.74
X72.72Y-126.25
X75.79Y-88.15
X78.13Y-71.63
X78.77Y-107.2
X80.04Y-52.54
X84.48Y-69.09
X85.42Y-128.79
X86.39Y-50.0
X88.49Y-90.7
X91.47Y-109.74
X91.77Y-126.25
X94.84Y-88.16
X97.2Y-71.63
X97.82Y-107.2
X103.55Y-69.09
X104.47Y-128.79
X107.54Y-90.66
X108.66Y-52.54
X110.52Y-109.69
X110.82Y-126.25
X113.89Y-88.12
X115.01Y-50.0
X116.24Y-71.63
X116.87Y-107.15
X122.36Y-147.95
X122.59Y-69.09
X123.52Y-128.75
X126.6Y-90.64
X127.7Y-52.54
X128.71Y-145.41
X129.57Y-109.69
X129.87Y-126.21
X132.95Y-88.1
X134.05Y-50.0
X135.27Y-71.63
X135.92Y-107.15
X141.62Y-69.09
X142.61Y-128.75
X145.65Y-90.69
X146.75Y-52.54
X148.64Y-109.65
X148.96Y-126.21
X152.0Y-88.15
X153.1Y-50.0
X154.3Y-71.63
X154.99Y-107.11
X160.65Y-69.09
X161.66Y-128.74
X164.7Y-90.69
X165.8Y-52.54
X167.67Y-109.74
X168.01Y-126.2
X171.05Y-88.15
X172.15Y-50.0
X173.34Y-71.63
X174.02Y-107.2
X179.69Y-69.09
X180.77Y-128.78
X183.75Y-90.69
X186.72Y-109.74
X187.12Y-126.24
X190.1Y-88.15
X191.42Y-147.84
X192.42Y-71.63
X193.07Y-107.2
X194.385Y-52.54
X197.77Y-145.3
X198.77Y-69.09
X199.82Y-128.79
X200.735Y-50.0
X202.8Y-90.69
X205.77Y-109.74
X206.17Y-126.25
X209.15Y-88.15
X210.47Y-147.84
X211.53Y-71.63
X212.12Y-107.2
X213.44Y-52.54
X216.82Y-145.3
X217.88Y-69.09
X218.89Y-128.79
X219.79Y-50.0
X221.85Y-90.69
X224.82Y-109.74
X225.24Y-126.25
X228.2Y-88.15
X230.66Y-71.64
X231.17Y-107.2
X232.5Y-52.54
X237.01Y-69.1
X238.85Y-50.0
X240.9Y-90.69
X247.25Y-88.15
X249.12Y-128.84
X251.54Y-52.54
X253.47Y-109.78
X255.47Y-126.3
X257.89Y-50.0
X259.37Y-71.68
X259.82Y-107.24
X259.94Y-90.69
X261.08Y-147.87
X265.72Y-69.14
X266.29Y-88.15
X267.43Y-145.33
X280.12Y-128.84
X280.13Y-147.88
X286.47Y-126.3
X286.48Y-145.34
X299.18Y-147.88
X305.53Y-145.34
T5
X76.17Y-143.44
X176.183Y-143.44
T3
G00X279.75Y-48.6
M15
G01X281.05Y-48.6
M16
G05
G00X279.75Y-59.8
M15
G01X281.05Y-59.8
M16
G05
M30
